# xmcd
#
# Track frame offsets:
#	182
#	36747
#	70895
#	90005
#	119877
#	153552
#	172527
#	189687
#	208635
#	225310
#	243282
#	260910
#
# Disc length: 3679 seconds
#
# Revision: 0
# Processed by: cddbd v1.5.1PL0 Copyright (c) Steve Scherf et al.
# Submitted via: dBpowerAMP V4.0
#
DISCID=a20e5d0c
DTITLE=Bettye Lavette - Not Gonna Happen Twice
DYEAR=1900
DGENRE=Soul
TTITLE0=Not Gonna Happen Twice
TTITLE1=Love Caught Me Out
TTITLE2=Out Of The Blue
TTITLE3=Have A Heart
TTITLE4=Right Out Of Time
TTITLE5=Too Great A Price To Pay
TTITLE6=Let Me Down Easy
TTITLE7=Good Luck
TTITLE8=Jimmy Mack
TTITLE9=Time Won't Change This Love
TTITLE10=Danger ! Heartbreak Dead Ahead
TTITLE11=Surrender
EXTD=
EXTT0=
EXTT1=
EXTT2=
EXTT3=
EXTT4=
EXTT5=
EXTT6=
EXTT7=
EXTT8=
EXTT9=
EXTT10=
EXTT11=
PLAYORDER=
